<mxfile host="app.diagrams.net" modified="2024-02-16T17:37:18.328Z" agent="Mozilla/5.0 (X11; Linux x86_64; rv:121.0) Gecko/20100101 Firefox/121.0" etag="Jji9w_sFpX_iWoOml10-" version="23.1.4" type="device">
  <diagram name="Page-1" id="42789a77-a242-8287-6e28-9cd8cfd52e62">
    <mxGraphModel dx="3187" dy="1827" grid="1" gridSize="10" guides="1" tooltips="1" connect="1" arrows="1" fold="1" page="1" pageScale="1" pageWidth="1100" pageHeight="850" background="none" math="0" shadow="0">
      <root>
        <mxCell id="0" />
        <mxCell id="1" parent="0" />
        <mxCell id="1ea317790d2ca983-13" value="coin10" style="edgeStyle=none;rounded=1;html=1;labelBackgroundColor=none;startArrow=none;startFill=0;startSize=5;endArrow=classicThin;endFill=1;endSize=5;jettySize=auto;orthogonalLoop=1;strokeColor=#B3B3B3;strokeWidth=4;fontFamily=Verdana;fontSize=12;entryX=0;entryY=0.5;entryDx=0;entryDy=0;" parent="1" source="1ea317790d2ca983-1" target="X88vrc6dVIh7EYiCYUMr-2" edge="1">
          <mxGeometry x="0.0065" y="6" relative="1" as="geometry">
            <mxPoint x="360" y="470" as="targetPoint" />
            <Array as="points">
              <mxPoint x="380" y="350" />
              <mxPoint x="380" y="430" />
            </Array>
            <mxPoint y="1" as="offset" />
          </mxGeometry>
        </mxCell>
        <mxCell id="1ea317790d2ca983-14" value="coin5" style="edgeStyle=none;rounded=1;html=1;labelBackgroundColor=none;startArrow=none;startFill=0;startSize=5;endArrow=classicThin;endFill=1;endSize=5;jettySize=auto;orthogonalLoop=1;strokeColor=#B3B3B3;strokeWidth=4;fontFamily=Verdana;fontSize=12" parent="1" source="1ea317790d2ca983-1" target="1ea317790d2ca983-3" edge="1">
          <mxGeometry relative="1" as="geometry" />
        </mxCell>
        <mxCell id="1ea317790d2ca983-1" value="0" style="ellipse;whiteSpace=wrap;html=1;rounded=0;shadow=1;comic=0;labelBackgroundColor=none;strokeWidth=1;fontFamily=Verdana;fontSize=12;align=center;" parent="1" vertex="1">
          <mxGeometry x="432.5" y="210" width="87.5" height="60" as="geometry" />
        </mxCell>
        <mxCell id="1ea317790d2ca983-3" value="5" style="ellipse;whiteSpace=wrap;html=1;rounded=0;shadow=1;comic=0;labelBackgroundColor=none;strokeWidth=1;fontFamily=Verdana;fontSize=12;align=center;" parent="1" vertex="1">
          <mxGeometry x="440" y="350" width="75" height="50" as="geometry" />
        </mxCell>
        <mxCell id="X88vrc6dVIh7EYiCYUMr-1" value="restart" style="edgeStyle=none;rounded=1;html=1;labelBackgroundColor=none;startArrow=none;startFill=0;startSize=5;endArrow=classicThin;endFill=1;endSize=10;jettySize=auto;orthogonalLoop=1;strokeColor=#B3B3B3;strokeWidth=5;fontFamily=Verdana;fontSize=12;entryX=0.5;entryY=0;entryDx=0;entryDy=0;" edge="1" parent="1" target="1ea317790d2ca983-1">
          <mxGeometry relative="1" as="geometry">
            <mxPoint x="478" y="150" as="sourcePoint" />
            <mxPoint x="289" y="362" as="targetPoint" />
            <Array as="points" />
            <mxPoint as="offset" />
          </mxGeometry>
        </mxCell>
        <mxCell id="X88vrc6dVIh7EYiCYUMr-2" value="10" style="ellipse;whiteSpace=wrap;html=1;rounded=0;shadow=1;comic=0;labelBackgroundColor=none;strokeWidth=1;fontFamily=Verdana;fontSize=12;align=center;" vertex="1" parent="1">
          <mxGeometry x="438.75" y="510" width="75" height="50" as="geometry" />
        </mxCell>
        <mxCell id="X88vrc6dVIh7EYiCYUMr-3" value="coin5" style="edgeStyle=none;rounded=1;html=1;labelBackgroundColor=none;startArrow=none;startFill=0;startSize=5;endArrow=classicThin;endFill=1;endSize=5;jettySize=auto;orthogonalLoop=1;strokeColor=#B3B3B3;strokeWidth=4;fontFamily=Verdana;fontSize=12;exitX=0.5;exitY=1;exitDx=0;exitDy=0;entryX=0.5;entryY=0;entryDx=0;entryDy=0;" edge="1" parent="1" source="1ea317790d2ca983-3" target="X88vrc6dVIh7EYiCYUMr-2">
          <mxGeometry relative="1" as="geometry">
            <mxPoint x="560" y="440" as="sourcePoint" />
            <mxPoint x="588" y="520" as="targetPoint" />
          </mxGeometry>
        </mxCell>
        <mxCell id="X88vrc6dVIh7EYiCYUMr-4" value="15" style="ellipse;whiteSpace=wrap;html=1;rounded=0;shadow=1;comic=0;labelBackgroundColor=none;strokeWidth=1;fontFamily=Verdana;fontSize=12;align=center;" vertex="1" parent="1">
          <mxGeometry x="440" y="630" width="75" height="50" as="geometry" />
        </mxCell>
        <mxCell id="X88vrc6dVIh7EYiCYUMr-5" value="coin10" style="edgeStyle=none;rounded=1;html=1;labelBackgroundColor=none;startArrow=none;startFill=0;startSize=5;endArrow=classicThin;endFill=1;endSize=5;jettySize=auto;orthogonalLoop=1;strokeColor=#B3B3B3;strokeWidth=4;fontFamily=Verdana;fontSize=12;entryX=1;entryY=0.5;entryDx=0;entryDy=0;exitX=1;exitY=0.5;exitDx=0;exitDy=0;" edge="1" parent="1" source="1ea317790d2ca983-3" target="X88vrc6dVIh7EYiCYUMr-4">
          <mxGeometry x="0.0065" y="6" relative="1" as="geometry">
            <mxPoint x="570" y="380" as="sourcePoint" />
            <mxPoint x="660" y="659" as="targetPoint" />
            <Array as="points">
              <mxPoint x="670" y="430" />
              <mxPoint x="670" y="650" />
            </Array>
            <mxPoint y="1" as="offset" />
          </mxGeometry>
        </mxCell>
        <mxCell id="X88vrc6dVIh7EYiCYUMr-6" value="coin5" style="edgeStyle=none;rounded=1;html=1;labelBackgroundColor=none;startArrow=none;startFill=0;startSize=5;endArrow=classicThin;endFill=1;endSize=5;jettySize=auto;orthogonalLoop=1;strokeColor=#B3B3B3;strokeWidth=4;fontFamily=Verdana;fontSize=12;exitX=0.5;exitY=1;exitDx=0;exitDy=0;entryX=0.5;entryY=0;entryDx=0;entryDy=0;" edge="1" parent="1" source="X88vrc6dVIh7EYiCYUMr-2" target="X88vrc6dVIh7EYiCYUMr-4">
          <mxGeometry relative="1" as="geometry">
            <mxPoint x="400" y="540" as="sourcePoint" />
            <mxPoint x="400" y="640" as="targetPoint" />
          </mxGeometry>
        </mxCell>
        <mxCell id="X88vrc6dVIh7EYiCYUMr-7" value="20" style="ellipse;whiteSpace=wrap;html=1;rounded=0;shadow=1;comic=0;labelBackgroundColor=none;strokeWidth=1;fontFamily=Verdana;fontSize=12;align=center;" vertex="1" parent="1">
          <mxGeometry x="440" y="760" width="75" height="50" as="geometry" />
        </mxCell>
        <mxCell id="X88vrc6dVIh7EYiCYUMr-8" value="25" style="ellipse;whiteSpace=wrap;html=1;rounded=0;shadow=1;comic=0;labelBackgroundColor=none;strokeWidth=1;fontFamily=Verdana;fontSize=12;align=center;" vertex="1" parent="1">
          <mxGeometry x="440" y="900" width="75" height="50" as="geometry" />
        </mxCell>
        <mxCell id="X88vrc6dVIh7EYiCYUMr-9" value="30" style="ellipse;whiteSpace=wrap;html=1;rounded=0;shadow=1;comic=0;labelBackgroundColor=none;strokeWidth=1;fontFamily=Verdana;fontSize=12;align=center;" vertex="1" parent="1">
          <mxGeometry x="440" y="1070" width="75" height="50" as="geometry" />
        </mxCell>
        <mxCell id="X88vrc6dVIh7EYiCYUMr-10" value="35" style="ellipse;whiteSpace=wrap;html=1;rounded=0;shadow=1;comic=0;labelBackgroundColor=none;strokeWidth=1;fontFamily=Verdana;fontSize=12;align=center;" vertex="1" parent="1">
          <mxGeometry x="440" y="1230" width="75" height="50" as="geometry" />
        </mxCell>
        <mxCell id="X88vrc6dVIh7EYiCYUMr-11" value="40" style="ellipse;whiteSpace=wrap;html=1;rounded=0;shadow=1;comic=0;labelBackgroundColor=none;strokeWidth=1;fontFamily=Verdana;fontSize=12;align=center;" vertex="1" parent="1">
          <mxGeometry x="440" y="1400" width="75" height="50" as="geometry" />
        </mxCell>
        <mxCell id="X88vrc6dVIh7EYiCYUMr-13" value="coin5" style="edgeStyle=none;rounded=1;html=1;labelBackgroundColor=none;startArrow=none;startFill=0;startSize=5;endArrow=classicThin;endFill=1;endSize=5;jettySize=auto;orthogonalLoop=1;strokeColor=#B3B3B3;strokeWidth=4;fontFamily=Verdana;fontSize=12;exitX=0.5;exitY=1;exitDx=0;exitDy=0;entryX=0.5;entryY=0;entryDx=0;entryDy=0;" edge="1" parent="1" source="X88vrc6dVIh7EYiCYUMr-4" target="X88vrc6dVIh7EYiCYUMr-7">
          <mxGeometry relative="1" as="geometry">
            <mxPoint x="488" y="560" as="sourcePoint" />
            <mxPoint x="488" y="640" as="targetPoint" />
          </mxGeometry>
        </mxCell>
        <mxCell id="X88vrc6dVIh7EYiCYUMr-14" value="coin5" style="edgeStyle=none;rounded=1;html=1;labelBackgroundColor=none;startArrow=none;startFill=0;startSize=5;endArrow=classicThin;endFill=1;endSize=5;jettySize=auto;orthogonalLoop=1;strokeColor=#B3B3B3;strokeWidth=4;fontFamily=Verdana;fontSize=12;exitX=0.5;exitY=1;exitDx=0;exitDy=0;entryX=0.5;entryY=0;entryDx=0;entryDy=0;exitPerimeter=0;" edge="1" parent="1" source="X88vrc6dVIh7EYiCYUMr-7" target="X88vrc6dVIh7EYiCYUMr-8">
          <mxGeometry relative="1" as="geometry">
            <mxPoint x="498" y="570" as="sourcePoint" />
            <mxPoint x="498" y="650" as="targetPoint" />
          </mxGeometry>
        </mxCell>
        <mxCell id="X88vrc6dVIh7EYiCYUMr-15" value="coin5" style="edgeStyle=none;rounded=1;html=1;labelBackgroundColor=none;startArrow=none;startFill=0;startSize=5;endArrow=classicThin;endFill=1;endSize=5;jettySize=auto;orthogonalLoop=1;strokeColor=#B3B3B3;strokeWidth=4;fontFamily=Verdana;fontSize=12;entryX=0.5;entryY=0;entryDx=0;entryDy=0;exitX=0.5;exitY=1;exitDx=0;exitDy=0;" edge="1" parent="1" source="X88vrc6dVIh7EYiCYUMr-8" target="X88vrc6dVIh7EYiCYUMr-9">
          <mxGeometry relative="1" as="geometry">
            <mxPoint x="478" y="970" as="sourcePoint" />
            <mxPoint x="477" y="1040" as="targetPoint" />
          </mxGeometry>
        </mxCell>
        <mxCell id="X88vrc6dVIh7EYiCYUMr-16" value="coin5" style="edgeStyle=none;rounded=1;html=1;labelBackgroundColor=none;startArrow=none;startFill=0;startSize=5;endArrow=classicThin;endFill=1;endSize=5;jettySize=auto;orthogonalLoop=1;strokeColor=#B3B3B3;strokeWidth=4;fontFamily=Verdana;fontSize=12;entryX=0.5;entryY=0;entryDx=0;entryDy=0;exitX=0.5;exitY=1;exitDx=0;exitDy=0;" edge="1" parent="1" source="X88vrc6dVIh7EYiCYUMr-9" target="X88vrc6dVIh7EYiCYUMr-10">
          <mxGeometry relative="1" as="geometry">
            <mxPoint x="488" y="960" as="sourcePoint" />
            <mxPoint x="488" y="1080" as="targetPoint" />
          </mxGeometry>
        </mxCell>
        <mxCell id="X88vrc6dVIh7EYiCYUMr-17" value="coin5" style="edgeStyle=none;rounded=1;html=1;labelBackgroundColor=none;startArrow=none;startFill=0;startSize=5;endArrow=classicThin;endFill=1;endSize=5;jettySize=auto;orthogonalLoop=1;strokeColor=#B3B3B3;strokeWidth=4;fontFamily=Verdana;fontSize=12;entryX=0.5;entryY=0;entryDx=0;entryDy=0;exitX=0.5;exitY=1;exitDx=0;exitDy=0;" edge="1" parent="1" source="X88vrc6dVIh7EYiCYUMr-10" target="X88vrc6dVIh7EYiCYUMr-11">
          <mxGeometry relative="1" as="geometry">
            <mxPoint x="488" y="1130" as="sourcePoint" />
            <mxPoint x="488" y="1240" as="targetPoint" />
          </mxGeometry>
        </mxCell>
        <mxCell id="X88vrc6dVIh7EYiCYUMr-18" value="coin10" style="edgeStyle=none;rounded=1;html=1;labelBackgroundColor=none;startArrow=none;startFill=0;startSize=5;endArrow=classicThin;endFill=1;endSize=5;jettySize=auto;orthogonalLoop=1;strokeColor=#B3B3B3;strokeWidth=4;fontFamily=Verdana;fontSize=12;entryX=0;entryY=0.5;entryDx=0;entryDy=0;exitX=0;exitY=0.5;exitDx=0;exitDy=0;" edge="1" parent="1" source="X88vrc6dVIh7EYiCYUMr-2" target="X88vrc6dVIh7EYiCYUMr-7">
          <mxGeometry x="0.0065" y="6" relative="1" as="geometry">
            <mxPoint x="410" y="540" as="sourcePoint" />
            <mxPoint x="425" y="784.5" as="targetPoint" />
            <Array as="points">
              <mxPoint x="365" y="609.5" />
              <mxPoint x="365" y="689.5" />
            </Array>
            <mxPoint y="1" as="offset" />
          </mxGeometry>
        </mxCell>
        <mxCell id="X88vrc6dVIh7EYiCYUMr-19" value="coin10" style="edgeStyle=none;rounded=1;html=1;labelBackgroundColor=none;startArrow=none;startFill=0;startSize=5;endArrow=classicThin;endFill=1;endSize=5;jettySize=auto;orthogonalLoop=1;strokeColor=#B3B3B3;strokeWidth=4;fontFamily=Verdana;fontSize=12;entryX=0;entryY=0.5;entryDx=0;entryDy=0;exitX=-0.025;exitY=0.634;exitDx=0;exitDy=0;exitPerimeter=0;" edge="1" parent="1" source="X88vrc6dVIh7EYiCYUMr-7" target="X88vrc6dVIh7EYiCYUMr-9">
          <mxGeometry x="0.0065" y="6" relative="1" as="geometry">
            <mxPoint x="435" y="790" as="sourcePoint" />
            <mxPoint x="435" y="1050" as="targetPoint" />
            <Array as="points">
              <mxPoint x="360" y="874.5" />
              <mxPoint x="360" y="980" />
            </Array>
            <mxPoint y="1" as="offset" />
          </mxGeometry>
        </mxCell>
        <mxCell id="X88vrc6dVIh7EYiCYUMr-20" value="coin10" style="edgeStyle=none;rounded=1;html=1;labelBackgroundColor=none;startArrow=none;startFill=0;startSize=5;endArrow=classicThin;endFill=1;endSize=5;jettySize=auto;orthogonalLoop=1;strokeColor=#B3B3B3;strokeWidth=4;fontFamily=Verdana;fontSize=12;entryX=0;entryY=0.5;entryDx=0;entryDy=0;exitX=0;exitY=0.6;exitDx=0;exitDy=0;exitPerimeter=0;" edge="1" parent="1" source="X88vrc6dVIh7EYiCYUMr-9" target="X88vrc6dVIh7EYiCYUMr-11">
          <mxGeometry x="0.0065" y="6" relative="1" as="geometry">
            <mxPoint x="438" y="1097" as="sourcePoint" />
            <mxPoint x="440" y="1400" as="targetPoint" />
            <Array as="points">
              <mxPoint x="360" y="1179.5" />
              <mxPoint x="360" y="1285" />
            </Array>
            <mxPoint y="1" as="offset" />
          </mxGeometry>
        </mxCell>
        <mxCell id="X88vrc6dVIh7EYiCYUMr-21" value="coin10" style="edgeStyle=none;rounded=1;html=1;labelBackgroundColor=none;startArrow=none;startFill=0;startSize=5;endArrow=classicThin;endFill=1;endSize=5;jettySize=auto;orthogonalLoop=1;strokeColor=#B3B3B3;strokeWidth=4;fontFamily=Verdana;fontSize=12;entryX=1;entryY=0.5;entryDx=0;entryDy=0;exitX=1;exitY=0.5;exitDx=0;exitDy=0;" edge="1" parent="1" source="X88vrc6dVIh7EYiCYUMr-4" target="X88vrc6dVIh7EYiCYUMr-8">
          <mxGeometry x="0.0065" y="6" relative="1" as="geometry">
            <mxPoint x="530" y="660" as="sourcePoint" />
            <mxPoint x="515" y="940" as="targetPoint" />
            <Array as="points">
              <mxPoint x="660" y="730" />
              <mxPoint x="660" y="920" />
            </Array>
            <mxPoint y="1" as="offset" />
          </mxGeometry>
        </mxCell>
        <mxCell id="X88vrc6dVIh7EYiCYUMr-22" value="coin10" style="edgeStyle=none;rounded=1;html=1;labelBackgroundColor=none;startArrow=none;startFill=0;startSize=5;endArrow=classicThin;endFill=1;endSize=5;jettySize=auto;orthogonalLoop=1;strokeColor=#B3B3B3;strokeWidth=4;fontFamily=Verdana;fontSize=12;entryX=1;entryY=0.5;entryDx=0;entryDy=0;exitX=1;exitY=0.5;exitDx=0;exitDy=0;" edge="1" parent="1" source="X88vrc6dVIh7EYiCYUMr-8" target="X88vrc6dVIh7EYiCYUMr-10">
          <mxGeometry x="0.0065" y="6" relative="1" as="geometry">
            <mxPoint x="540" y="930" as="sourcePoint" />
            <mxPoint x="515" y="1200" as="targetPoint" />
            <Array as="points">
              <mxPoint x="650" y="980" />
              <mxPoint x="650" y="1240" />
            </Array>
            <mxPoint y="1" as="offset" />
          </mxGeometry>
        </mxCell>
        <mxCell id="X88vrc6dVIh7EYiCYUMr-23" value="coin5" style="edgeStyle=none;rounded=1;html=1;labelBackgroundColor=none;startArrow=none;startFill=0;startSize=5;endArrow=classicThin;endFill=1;endSize=5;jettySize=auto;orthogonalLoop=1;strokeColor=#B3B3B3;strokeWidth=4;fontFamily=Verdana;fontSize=12;exitX=0.5;exitY=1;exitDx=0;exitDy=0;" edge="1" parent="1" source="X88vrc6dVIh7EYiCYUMr-11">
          <mxGeometry relative="1" as="geometry">
            <mxPoint x="477.02" y="1460" as="sourcePoint" />
            <mxPoint x="477" y="1560" as="targetPoint" />
          </mxGeometry>
        </mxCell>
        <mxCell id="X88vrc6dVIh7EYiCYUMr-24" value="coin10" style="edgeStyle=none;rounded=1;html=1;labelBackgroundColor=none;startArrow=none;startFill=0;startSize=5;endArrow=classicThin;endFill=1;endSize=5;jettySize=auto;orthogonalLoop=1;strokeColor=#B3B3B3;strokeWidth=4;fontFamily=Verdana;fontSize=12;entryX=1;entryY=0.5;entryDx=0;entryDy=0;exitX=1;exitY=0.5;exitDx=0;exitDy=0;" edge="1" parent="1" source="X88vrc6dVIh7EYiCYUMr-10">
          <mxGeometry x="0.0065" y="6" relative="1" as="geometry">
            <mxPoint x="522.5" y="1260" as="sourcePoint" />
            <mxPoint x="522.5" y="1590" as="targetPoint" />
            <Array as="points">
              <mxPoint x="650" y="1290" />
              <mxPoint x="650" y="1560" />
            </Array>
            <mxPoint y="1" as="offset" />
          </mxGeometry>
        </mxCell>
        <mxCell id="X88vrc6dVIh7EYiCYUMr-25" value="&lt;div&gt;Tick5/get_tick=1&lt;/div&gt;" style="edgeStyle=none;rounded=1;html=1;labelBackgroundColor=none;startArrow=none;startFill=0;startSize=5;endArrow=classicThin;endFill=1;endSize=5;jettySize=auto;orthogonalLoop=1;strokeColor=#b85450;strokeWidth=4;fontFamily=Verdana;fontSize=12;fillColor=#f8cecc;exitX=1;exitY=0.5;exitDx=0;exitDy=0;entryX=1;entryY=0.5;entryDx=0;entryDy=0;" edge="1" parent="1" source="1ea317790d2ca983-3" target="1ea317790d2ca983-1">
          <mxGeometry relative="1" as="geometry">
            <mxPoint x="480" y="340" as="sourcePoint" />
            <mxPoint x="509" y="270" as="targetPoint" />
            <Array as="points">
              <mxPoint x="570" y="310" />
            </Array>
          </mxGeometry>
        </mxCell>
        <mxCell id="X88vrc6dVIh7EYiCYUMr-28" value="&lt;div&gt;Tick5/get_tick=1&lt;/div&gt;" style="edgeStyle=none;rounded=1;html=1;labelBackgroundColor=none;startArrow=none;startFill=0;startSize=5;endArrow=classicThin;endFill=1;endSize=5;jettySize=auto;orthogonalLoop=1;strokeColor=#b85450;strokeWidth=4;fontFamily=Verdana;fontSize=12;fillColor=#f8cecc;exitX=1;exitY=0.5;exitDx=0;exitDy=0;" edge="1" parent="1" source="X88vrc6dVIh7EYiCYUMr-2">
          <mxGeometry relative="1" as="geometry">
            <mxPoint x="510" y="515" as="sourcePoint" />
            <mxPoint x="520" y="380" as="targetPoint" />
            <Array as="points">
              <mxPoint x="565" y="450" />
            </Array>
          </mxGeometry>
        </mxCell>
        <mxCell id="X88vrc6dVIh7EYiCYUMr-29" value="&lt;div&gt;Tick5/get_tick=1&lt;/div&gt;" style="edgeStyle=none;rounded=1;html=1;labelBackgroundColor=none;startArrow=none;startFill=0;startSize=5;endArrow=classicThin;endFill=1;endSize=5;jettySize=auto;orthogonalLoop=1;strokeColor=#b85450;strokeWidth=4;fontFamily=Verdana;fontSize=12;fillColor=#f8cecc;exitX=1;exitY=0.5;exitDx=0;exitDy=0;entryX=1;entryY=0.5;entryDx=0;entryDy=0;" edge="1" parent="1" source="X88vrc6dVIh7EYiCYUMr-4" target="X88vrc6dVIh7EYiCYUMr-2">
          <mxGeometry relative="1" as="geometry">
            <mxPoint x="515" y="665" as="sourcePoint" />
            <mxPoint x="530" y="540" as="targetPoint" />
            <Array as="points">
              <mxPoint x="570" y="600" />
            </Array>
          </mxGeometry>
        </mxCell>
        <mxCell id="X88vrc6dVIh7EYiCYUMr-30" value="&lt;div&gt;Tick5/get_tick=1&lt;/div&gt;" style="edgeStyle=none;rounded=1;html=1;labelBackgroundColor=none;startArrow=none;startFill=0;startSize=5;endArrow=classicThin;endFill=1;endSize=5;jettySize=auto;orthogonalLoop=1;strokeColor=#b85450;strokeWidth=4;fontFamily=Verdana;fontSize=12;fillColor=#f8cecc;exitX=1;exitY=0.5;exitDx=0;exitDy=0;entryX=0.974;entryY=0.654;entryDx=0;entryDy=0;entryPerimeter=0;" edge="1" parent="1" source="X88vrc6dVIh7EYiCYUMr-7" target="X88vrc6dVIh7EYiCYUMr-4">
          <mxGeometry relative="1" as="geometry">
            <mxPoint x="520" y="790" as="sourcePoint" />
            <mxPoint x="520" y="680" as="targetPoint" />
            <Array as="points">
              <mxPoint x="575" y="735" />
            </Array>
          </mxGeometry>
        </mxCell>
        <mxCell id="X88vrc6dVIh7EYiCYUMr-31" value="&lt;div&gt;Tick5/get_tick=1&lt;/div&gt;" style="edgeStyle=none;rounded=1;html=1;labelBackgroundColor=none;startArrow=none;startFill=0;startSize=5;endArrow=classicThin;endFill=1;endSize=5;jettySize=auto;orthogonalLoop=1;strokeColor=#b85450;strokeWidth=4;fontFamily=Verdana;fontSize=12;fillColor=#f8cecc;exitX=1;exitY=0.5;exitDx=0;exitDy=0;entryX=1;entryY=0.5;entryDx=0;entryDy=0;" edge="1" parent="1" source="X88vrc6dVIh7EYiCYUMr-8" target="X88vrc6dVIh7EYiCYUMr-7">
          <mxGeometry relative="1" as="geometry">
            <mxPoint x="521" y="922" as="sourcePoint" />
            <mxPoint x="519" y="800" as="targetPoint" />
            <Array as="points">
              <mxPoint x="581" y="872" />
            </Array>
          </mxGeometry>
        </mxCell>
        <mxCell id="X88vrc6dVIh7EYiCYUMr-32" value="&lt;div&gt;Tick5/get_tick=1&lt;/div&gt;" style="edgeStyle=none;rounded=1;html=1;labelBackgroundColor=none;startArrow=none;startFill=0;startSize=5;endArrow=classicThin;endFill=1;endSize=5;jettySize=auto;orthogonalLoop=1;strokeColor=#b85450;strokeWidth=4;fontFamily=Verdana;fontSize=12;fillColor=#f8cecc;entryX=1;entryY=0.5;entryDx=0;entryDy=0;" edge="1" parent="1" target="X88vrc6dVIh7EYiCYUMr-8">
          <mxGeometry relative="1" as="geometry">
            <mxPoint x="515" y="1100" as="sourcePoint" />
            <mxPoint x="520" y="950" as="targetPoint" />
            <Array as="points">
              <mxPoint x="586" y="1037" />
            </Array>
          </mxGeometry>
        </mxCell>
        <mxCell id="X88vrc6dVIh7EYiCYUMr-33" value="&lt;div&gt;Tick5/get_tick=1&lt;/div&gt;" style="edgeStyle=none;rounded=1;html=1;labelBackgroundColor=none;startArrow=none;startFill=0;startSize=5;endArrow=classicThin;endFill=1;endSize=5;jettySize=auto;orthogonalLoop=1;strokeColor=#b85450;strokeWidth=4;fontFamily=Verdana;fontSize=12;fillColor=#f8cecc;entryX=1;entryY=0.5;entryDx=0;entryDy=0;exitX=1;exitY=0.5;exitDx=0;exitDy=0;" edge="1" parent="1" source="X88vrc6dVIh7EYiCYUMr-10" target="X88vrc6dVIh7EYiCYUMr-9">
          <mxGeometry relative="1" as="geometry">
            <mxPoint x="520" y="1275" as="sourcePoint" />
            <mxPoint x="520" y="1100" as="targetPoint" />
            <Array as="points">
              <mxPoint x="580" y="1180" />
            </Array>
          </mxGeometry>
        </mxCell>
        <mxCell id="X88vrc6dVIh7EYiCYUMr-34" value="&lt;div&gt;Tick5/get_tick=1&lt;/div&gt;" style="edgeStyle=none;rounded=1;html=1;labelBackgroundColor=none;startArrow=none;startFill=0;startSize=5;endArrow=classicThin;endFill=1;endSize=5;jettySize=auto;orthogonalLoop=1;strokeColor=#b85450;strokeWidth=4;fontFamily=Verdana;fontSize=12;fillColor=#f8cecc;entryX=1;entryY=0.5;entryDx=0;entryDy=0;exitX=1;exitY=0.5;exitDx=0;exitDy=0;" edge="1" parent="1" source="X88vrc6dVIh7EYiCYUMr-11" target="X88vrc6dVIh7EYiCYUMr-10">
          <mxGeometry relative="1" as="geometry">
            <mxPoint x="520" y="1425" as="sourcePoint" />
            <mxPoint x="520" y="1265" as="targetPoint" />
            <Array as="points">
              <mxPoint x="585" y="1350" />
            </Array>
          </mxGeometry>
        </mxCell>
        <mxCell id="X88vrc6dVIh7EYiCYUMr-35" value="&lt;div&gt;Tick15/get_tick=1&lt;/div&gt;" style="edgeStyle=none;rounded=1;html=1;labelBackgroundColor=none;startArrow=none;startFill=0;startSize=5;endArrow=classicThin;endFill=1;endSize=5;jettySize=auto;orthogonalLoop=1;strokeColor=#d79b00;strokeWidth=4;fontFamily=Verdana;fontSize=12;fillColor=#ffe6cc;exitX=0;exitY=1;exitDx=0;exitDy=0;entryX=0;entryY=0.5;entryDx=0;entryDy=0;" edge="1" parent="1" source="X88vrc6dVIh7EYiCYUMr-4" target="1ea317790d2ca983-1">
          <mxGeometry relative="1" as="geometry">
            <mxPoint x="260" y="670" as="sourcePoint" />
            <mxPoint x="200" y="350" as="targetPoint" />
            <Array as="points">
              <mxPoint x="200" y="670" />
              <mxPoint x="200" y="250" />
            </Array>
          </mxGeometry>
        </mxCell>
        <mxCell id="X88vrc6dVIh7EYiCYUMr-37" value="&lt;div&gt;Tick15/get_tick=1&lt;/div&gt;" style="edgeStyle=none;rounded=1;html=1;labelBackgroundColor=none;startArrow=none;startFill=0;startSize=5;endArrow=classicThin;endFill=1;endSize=5;jettySize=auto;orthogonalLoop=1;strokeColor=#d79b00;strokeWidth=4;fontFamily=Verdana;fontSize=12;fillColor=#ffe6cc;exitX=0;exitY=0;exitDx=0;exitDy=0;entryX=0.5;entryY=1;entryDx=0;entryDy=0;" edge="1" parent="1" source="X88vrc6dVIh7EYiCYUMr-9" target="X88vrc6dVIh7EYiCYUMr-4">
          <mxGeometry relative="1" as="geometry">
            <mxPoint x="451" y="1026" as="sourcePoint" />
            <mxPoint x="430" y="690" as="targetPoint" />
            <Array as="points">
              <mxPoint x="200" y="1023" />
              <mxPoint x="200" y="713" />
            </Array>
          </mxGeometry>
        </mxCell>
        <mxCell id="X88vrc6dVIh7EYiCYUMr-38" value="&lt;div&gt;Tick15/get_tick=1&lt;/div&gt;" style="edgeStyle=none;rounded=1;html=1;labelBackgroundColor=none;startArrow=none;startFill=0;startSize=5;endArrow=classicThin;endFill=1;endSize=5;jettySize=auto;orthogonalLoop=1;strokeColor=#d79b00;strokeWidth=4;fontFamily=Verdana;fontSize=12;fillColor=#ffe6cc;entryX=0.133;entryY=0.8;entryDx=0;entryDy=0;entryPerimeter=0;" edge="1" parent="1" target="X88vrc6dVIh7EYiCYUMr-9">
          <mxGeometry relative="1" as="geometry">
            <mxPoint x="440" y="1590" as="sourcePoint" />
            <mxPoint x="449" y="1120" as="targetPoint" />
            <Array as="points">
              <mxPoint x="190" y="1459" />
              <mxPoint x="190" y="1149" />
            </Array>
          </mxGeometry>
        </mxCell>
        <mxCell id="X88vrc6dVIh7EYiCYUMr-39" value="&lt;div&gt;Tick15&lt;/div&gt;" style="edgeStyle=none;rounded=1;html=1;labelBackgroundColor=none;startArrow=none;startFill=0;startSize=5;endArrow=classicThin;endFill=1;endSize=5;jettySize=auto;orthogonalLoop=1;strokeColor=#d79b00;strokeWidth=4;fontFamily=Verdana;fontSize=12;fillColor=#ffe6cc;exitX=0;exitY=0;exitDx=0;exitDy=0;entryX=0.2;entryY=0;entryDx=0;entryDy=0;entryPerimeter=0;" edge="1" parent="1" source="1ea317790d2ca983-1" target="1ea317790d2ca983-1">
          <mxGeometry relative="1" as="geometry">
            <mxPoint x="410" y="220" as="sourcePoint" />
            <mxPoint x="370" y="-10" as="targetPoint" />
            <Array as="points">
              <mxPoint x="400" y="210" />
              <mxPoint x="370" y="190" />
              <mxPoint x="370" y="170" />
              <mxPoint x="390" y="150" />
              <mxPoint x="420" y="170" />
            </Array>
          </mxGeometry>
        </mxCell>
        <mxCell id="X88vrc6dVIh7EYiCYUMr-40" value="&lt;div&gt;Tick15&lt;/div&gt;" style="edgeStyle=none;rounded=1;html=1;labelBackgroundColor=none;startArrow=none;startFill=0;startSize=5;endArrow=classicThin;endFill=1;endSize=5;jettySize=auto;orthogonalLoop=1;strokeColor=#d79b00;strokeWidth=4;fontFamily=Verdana;fontSize=12;fillColor=#ffe6cc;exitX=0;exitY=0;exitDx=0;exitDy=0;entryX=0.25;entryY=-0.05;entryDx=0;entryDy=0;entryPerimeter=0;" edge="1" parent="1" source="1ea317790d2ca983-3" target="1ea317790d2ca983-3">
          <mxGeometry relative="1" as="geometry">
            <mxPoint x="445" y="359" as="sourcePoint" />
            <mxPoint x="450" y="350" as="targetPoint" />
            <Array as="points">
              <mxPoint x="400" y="350" />
              <mxPoint x="370" y="330" />
              <mxPoint x="370" y="310" />
              <mxPoint x="390" y="290" />
              <mxPoint x="420" y="310" />
            </Array>
          </mxGeometry>
        </mxCell>
        <mxCell id="X88vrc6dVIh7EYiCYUMr-41" value="&lt;div&gt;Tick15&lt;/div&gt;" style="edgeStyle=none;rounded=1;html=1;labelBackgroundColor=none;startArrow=none;startFill=0;startSize=5;endArrow=classicThin;endFill=1;endSize=5;jettySize=auto;orthogonalLoop=1;strokeColor=#d79b00;strokeWidth=4;fontFamily=Verdana;fontSize=12;fillColor=#ffe6cc;exitX=0;exitY=0;exitDx=0;exitDy=0;entryX=0.5;entryY=0;entryDx=0;entryDy=0;" edge="1" parent="1" source="X88vrc6dVIh7EYiCYUMr-2" target="X88vrc6dVIh7EYiCYUMr-2">
          <mxGeometry relative="1" as="geometry">
            <mxPoint x="460" y="510" as="sourcePoint" />
            <mxPoint x="460" y="490" as="targetPoint" />
            <Array as="points">
              <mxPoint x="400" y="500" />
              <mxPoint x="360" y="490" />
              <mxPoint x="360" y="470" />
              <mxPoint x="380" y="450" />
              <mxPoint x="410" y="470" />
            </Array>
          </mxGeometry>
        </mxCell>
        <mxCell id="X88vrc6dVIh7EYiCYUMr-42" value="&lt;div&gt;Tick15/get_tick=1&lt;/div&gt;" style="edgeStyle=none;rounded=1;html=1;labelBackgroundColor=none;startArrow=none;startFill=0;startSize=5;endArrow=classicThin;endFill=1;endSize=5;jettySize=auto;orthogonalLoop=1;strokeColor=#d79b00;strokeWidth=4;fontFamily=Verdana;fontSize=12;fillColor=#ffe6cc;exitX=0;exitY=0.5;exitDx=0;exitDy=0;entryX=0;entryY=0.5;entryDx=0;entryDy=0;" edge="1" parent="1" source="X88vrc6dVIh7EYiCYUMr-7" target="1ea317790d2ca983-3">
          <mxGeometry relative="1" as="geometry">
            <mxPoint x="461" y="810" as="sourcePoint" />
            <mxPoint x="420" y="377" as="targetPoint" />
            <Array as="points">
              <mxPoint x="300" y="785" />
              <mxPoint x="300" y="380" />
            </Array>
          </mxGeometry>
        </mxCell>
        <mxCell id="X88vrc6dVIh7EYiCYUMr-43" value="&lt;div&gt;Tick15/get_tick=1&lt;/div&gt;" style="edgeStyle=none;rounded=1;html=1;labelBackgroundColor=none;startArrow=none;startFill=0;startSize=5;endArrow=classicThin;endFill=1;endSize=5;jettySize=auto;orthogonalLoop=1;strokeColor=#d79b00;strokeWidth=4;fontFamily=Verdana;fontSize=12;fillColor=#ffe6cc;exitX=0;exitY=0.5;exitDx=0;exitDy=0;entryX=0;entryY=0.5;entryDx=0;entryDy=0;" edge="1" parent="1" source="X88vrc6dVIh7EYiCYUMr-8" target="X88vrc6dVIh7EYiCYUMr-2">
          <mxGeometry relative="1" as="geometry">
            <mxPoint x="170" y="910" as="sourcePoint" />
            <mxPoint x="170" y="500" as="targetPoint" />
            <Array as="points">
              <mxPoint x="100" y="880" />
              <mxPoint x="100" y="570" />
            </Array>
          </mxGeometry>
        </mxCell>
        <mxCell id="X88vrc6dVIh7EYiCYUMr-44" value="&lt;div&gt;Tick15/get_tick=1&lt;/div&gt;" style="edgeStyle=none;rounded=1;html=1;labelBackgroundColor=none;startArrow=none;startFill=0;startSize=5;endArrow=classicThin;endFill=1;endSize=5;jettySize=auto;orthogonalLoop=1;strokeColor=#d79b00;strokeWidth=4;fontFamily=Verdana;fontSize=12;fillColor=#ffe6cc;entryX=0;entryY=0.5;entryDx=0;entryDy=0;exitX=0;exitY=0.5;exitDx=0;exitDy=0;" edge="1" parent="1" source="X88vrc6dVIh7EYiCYUMr-10" target="X88vrc6dVIh7EYiCYUMr-7">
          <mxGeometry relative="1" as="geometry">
            <mxPoint x="430" y="1260" as="sourcePoint" />
            <mxPoint x="440" y="850" as="targetPoint" />
            <Array as="points">
              <mxPoint x="300" y="1250" />
              <mxPoint x="300" y="820" />
            </Array>
          </mxGeometry>
        </mxCell>
        <mxCell id="X88vrc6dVIh7EYiCYUMr-45" value="&lt;div&gt;Tick15/get_tick=1&lt;/div&gt;" style="edgeStyle=none;rounded=1;html=1;labelBackgroundColor=none;startArrow=none;startFill=0;startSize=5;endArrow=classicThin;endFill=1;endSize=5;jettySize=auto;orthogonalLoop=1;strokeColor=#d79b00;strokeWidth=4;fontFamily=Verdana;fontSize=12;fillColor=#ffe6cc;exitX=-0.029;exitY=0.626;exitDx=0;exitDy=0;exitPerimeter=0;entryX=0;entryY=1;entryDx=0;entryDy=0;" edge="1" parent="1" source="X88vrc6dVIh7EYiCYUMr-11" target="X88vrc6dVIh7EYiCYUMr-8">
          <mxGeometry relative="1" as="geometry">
            <mxPoint x="432.5" y="1420" as="sourcePoint" />
            <mxPoint x="438" y="930" as="targetPoint" />
            <Array as="points">
              <mxPoint x="92.5" y="1375" />
              <mxPoint x="93" y="1030" />
            </Array>
          </mxGeometry>
        </mxCell>
        <mxCell id="X88vrc6dVIh7EYiCYUMr-46" value="&lt;div&gt;Tick40&lt;/div&gt;" style="edgeStyle=none;rounded=1;html=1;labelBackgroundColor=none;startArrow=none;startFill=0;startSize=5;endArrow=classicThin;endFill=1;endSize=5;jettySize=auto;orthogonalLoop=1;strokeColor=#82b366;strokeWidth=4;fontFamily=Verdana;fontSize=12;fillColor=#d5e8d4;exitX=0.986;exitY=0.355;exitDx=0;exitDy=0;exitPerimeter=0;" edge="1" parent="1" source="1ea317790d2ca983-1" target="1ea317790d2ca983-1">
          <mxGeometry relative="1" as="geometry">
            <mxPoint x="540" y="220" as="sourcePoint" />
            <mxPoint x="530" y="180" as="targetPoint" />
            <Array as="points">
              <mxPoint x="590" y="200" />
              <mxPoint x="720" y="150" />
              <mxPoint x="700" y="110" />
            </Array>
          </mxGeometry>
        </mxCell>
        <mxCell id="X88vrc6dVIh7EYiCYUMr-47" value="&lt;div&gt;Tick40&lt;/div&gt;" style="edgeStyle=none;rounded=1;html=1;labelBackgroundColor=none;startArrow=none;startFill=0;startSize=5;endArrow=classicThin;endFill=1;endSize=5;jettySize=auto;orthogonalLoop=1;strokeColor=#82b366;strokeWidth=4;fontFamily=Verdana;fontSize=12;fillColor=#d5e8d4;exitX=1;exitY=0.5;exitDx=0;exitDy=0;entryX=1;entryY=0;entryDx=0;entryDy=0;" edge="1" parent="1" source="1ea317790d2ca983-3" target="1ea317790d2ca983-3">
          <mxGeometry x="-0.0257" y="-20" relative="1" as="geometry">
            <mxPoint x="610" y="371" as="sourcePoint" />
            <mxPoint x="590" y="355" as="targetPoint" />
            <Array as="points">
              <mxPoint x="760" y="350" />
              <mxPoint x="760" y="310" />
            </Array>
            <mxPoint as="offset" />
          </mxGeometry>
        </mxCell>
        <mxCell id="X88vrc6dVIh7EYiCYUMr-48" value="&lt;div&gt;Tick40&lt;/div&gt;" style="edgeStyle=none;rounded=1;html=1;labelBackgroundColor=none;startArrow=none;startFill=0;startSize=5;endArrow=classicThin;endFill=1;endSize=5;jettySize=auto;orthogonalLoop=1;strokeColor=#82b366;strokeWidth=4;fontFamily=Verdana;fontSize=12;fillColor=#d5e8d4;exitX=1;exitY=0.5;exitDx=0;exitDy=0;entryX=1;entryY=0;entryDx=0;entryDy=0;" edge="1" parent="1" source="X88vrc6dVIh7EYiCYUMr-2" target="X88vrc6dVIh7EYiCYUMr-2">
          <mxGeometry relative="1" as="geometry">
            <mxPoint x="559" y="521" as="sourcePoint" />
            <mxPoint x="550" y="511" as="targetPoint" />
            <Array as="points">
              <mxPoint x="630" y="490" />
              <mxPoint x="780" y="450" />
              <mxPoint x="760" y="420" />
            </Array>
          </mxGeometry>
        </mxCell>
        <mxCell id="X88vrc6dVIh7EYiCYUMr-49" value="&lt;div&gt;Tick40&lt;/div&gt;" style="edgeStyle=none;rounded=1;html=1;labelBackgroundColor=none;startArrow=none;startFill=0;startSize=5;endArrow=classicThin;endFill=1;endSize=5;jettySize=auto;orthogonalLoop=1;strokeColor=#82b366;strokeWidth=4;fontFamily=Verdana;fontSize=12;fillColor=#d5e8d4;exitX=0.745;exitY=0.94;exitDx=0;exitDy=0;entryX=0.796;entryY=0.978;entryDx=0;entryDy=0;entryPerimeter=0;exitPerimeter=0;" edge="1" parent="1" source="X88vrc6dVIh7EYiCYUMr-4" target="X88vrc6dVIh7EYiCYUMr-4">
          <mxGeometry relative="1" as="geometry">
            <mxPoint x="611" y="705" as="sourcePoint" />
            <mxPoint x="600" y="687" as="targetPoint" />
            <Array as="points">
              <mxPoint x="820" y="750" />
              <mxPoint x="840" y="700" />
            </Array>
          </mxGeometry>
        </mxCell>
        <mxCell id="X88vrc6dVIh7EYiCYUMr-50" value="&lt;div&gt;Tick40&lt;/div&gt;" style="edgeStyle=none;rounded=1;html=1;labelBackgroundColor=none;startArrow=none;startFill=0;startSize=5;endArrow=classicThin;endFill=1;endSize=5;jettySize=auto;orthogonalLoop=1;strokeColor=#82b366;strokeWidth=4;fontFamily=Verdana;fontSize=12;fillColor=#d5e8d4;exitX=0.593;exitY=1.083;exitDx=0;exitDy=0;entryX=1;entryY=1;entryDx=0;entryDy=0;exitPerimeter=0;" edge="1" parent="1" source="X88vrc6dVIh7EYiCYUMr-8" target="X88vrc6dVIh7EYiCYUMr-8">
          <mxGeometry relative="1" as="geometry">
            <mxPoint x="510" y="980" as="sourcePoint" />
            <mxPoint x="514" y="982" as="targetPoint" />
            <Array as="points">
              <mxPoint x="834" y="1053" />
              <mxPoint x="854" y="1003" />
            </Array>
          </mxGeometry>
        </mxCell>
        <mxCell id="X88vrc6dVIh7EYiCYUMr-51" value="&lt;div&gt;Tick40&lt;/div&gt;" style="edgeStyle=none;rounded=1;html=1;labelBackgroundColor=none;startArrow=none;startFill=0;startSize=5;endArrow=classicThin;endFill=1;endSize=5;jettySize=auto;orthogonalLoop=1;strokeColor=#82b366;strokeWidth=4;fontFamily=Verdana;fontSize=12;fillColor=#d5e8d4;exitX=0.593;exitY=1.073;exitDx=0;exitDy=0;entryX=1;entryY=1;entryDx=0;entryDy=0;exitPerimeter=0;" edge="1" parent="1" source="X88vrc6dVIh7EYiCYUMr-9" target="X88vrc6dVIh7EYiCYUMr-9">
          <mxGeometry relative="1" as="geometry">
            <mxPoint x="520" y="1131" as="sourcePoint" />
            <mxPoint x="540" y="1120" as="targetPoint" />
            <Array as="points">
              <mxPoint x="686" y="1187" />
              <mxPoint x="870" y="1230" />
              <mxPoint x="890" y="1180" />
            </Array>
          </mxGeometry>
        </mxCell>
        <mxCell id="X88vrc6dVIh7EYiCYUMr-52" value="&lt;div&gt;Tick40&lt;/div&gt;" style="edgeStyle=none;rounded=1;html=1;labelBackgroundColor=none;startArrow=none;startFill=0;startSize=5;endArrow=classicThin;endFill=1;endSize=5;jettySize=auto;orthogonalLoop=1;strokeColor=#82b366;strokeWidth=4;fontFamily=Verdana;fontSize=12;fillColor=#d5e8d4;exitX=0.5;exitY=1;exitDx=0;exitDy=0;entryX=1;entryY=1;entryDx=0;entryDy=0;" edge="1" parent="1" source="X88vrc6dVIh7EYiCYUMr-10" target="X88vrc6dVIh7EYiCYUMr-10">
          <mxGeometry relative="1" as="geometry">
            <mxPoint x="494" y="1301" as="sourcePoint" />
            <mxPoint x="514" y="1290" as="targetPoint" />
            <Array as="points">
              <mxPoint x="696" y="1364" />
              <mxPoint x="880" y="1407" />
              <mxPoint x="900" y="1357" />
            </Array>
          </mxGeometry>
        </mxCell>
        <mxCell id="X88vrc6dVIh7EYiCYUMr-53" value="&lt;div&gt;Tick40/get_Ticket=1&lt;/div&gt;" style="edgeStyle=none;rounded=1;html=1;labelBackgroundColor=none;startArrow=none;startFill=0;startSize=5;endArrow=classicThin;endFill=1;endSize=5;jettySize=auto;orthogonalLoop=1;strokeColor=#82b366;strokeWidth=4;fontFamily=Verdana;fontSize=12;fillColor=#d5e8d4;exitX=1;exitY=0.5;exitDx=0;exitDy=0;entryX=1;entryY=0.5;entryDx=0;entryDy=0;" edge="1" parent="1" source="X88vrc6dVIh7EYiCYUMr-11" target="1ea317790d2ca983-1">
          <mxGeometry relative="1" as="geometry">
            <mxPoint x="570" y="1447" as="sourcePoint" />
            <mxPoint x="900" y="220" as="targetPoint" />
            <Array as="points">
              <mxPoint x="788" y="1531" />
              <mxPoint x="972" y="1574" />
              <mxPoint x="992" y="1524" />
              <mxPoint x="980" y="270" />
            </Array>
          </mxGeometry>
        </mxCell>
      </root>
    </mxGraphModel>
  </diagram>
</mxfile>
